<svg width="120" height="120" viewBox="0 0 120 120" fill="none" xmlns="http://www.w3.org/2000/svg">
<g id="material-symbols:image">
<path id="Vector" d="M25 105C22.25 105 19.895 104.02 17.935 102.06C15.975 100.1 14.9967 97.7467 15 95V25C15 22.25 15.98 19.895 17.94 17.935C19.9 15.975 22.2533 14.9967 25 15H95C97.75 15 100.105 15.98 102.065 17.94C104.025 19.9 105.003 22.2533 105 25V95C105 97.75 104.02 100.105 102.06 102.065C100.1 104.025 97.7467 105.003 95 105H25ZM30 85H90L71.25 60L56.25 80L45 65L30 85Z" fill="#DBD7C5"/>
</g>
</svg>
